HIERARCHY
ROOT Hips
{
	OFFSET 56.018101 -9.594066 95.900497
	CHANNELS 6 Xposition Yposition Zposition Xrotation Yrotation Zrotation
	JOINT spine
	{
		OFFSET 0.000000 -0.458069 7.965683
		CHANNELS 3 Xrotation Yrotation Zrotation
		JOINT spine1
		{
			OFFSET 0.000000 -0.000001 10.243103
			CHANNELS 3 Xrotation Yrotation Zrotation
			JOINT spine2
			{
				OFFSET 0.000000 -0.000002 9.814751
				CHANNELS 3 Xrotation Yrotation Zrotation
				JOINT Neck
				{
					OFFSET 0.000000 -1.201384 25.198601
					CHANNELS 3 Xrotation Yrotation Zrotation
					JOINT Head
					{
						OFFSET 0.000000 -0.000002 7.613144
						CHANNELS 3 Xrotation Yrotation Zrotation
						End Site
						{
							OFFSET 0.000000 6.077327 18.428101
						}
					}
				}
				JOINT RightShoulder
				{
					OFFSET -4.132702 0.575449 10.599205
					CHANNELS 3 Xrotation Yrotation Zrotation
					JOINT RightArm
					{
						OFFSET 0.000000 -0.000002 13.901794
						CHANNELS 3 Xrotation Yrotation Zrotation
						JOINT RightArmRoll
						{
							OFFSET 0.000000 -0.000002 7.017883
							CHANNELS 3 Xrotation Yrotation Zrotation
							JOINT RightForeArm
							{
								OFFSET 0.000000 -0.000003 20.440598
								CHANNELS 3 Xrotation Yrotation Zrotation
								JOINT RightForeArmRoll
								{
									OFFSET 0.000000 -0.000001 7.875153
									CHANNELS 3 Xrotation Yrotation Zrotation
									JOINT RightHand
									{
										OFFSET 0.000000 -0.000003 15.803696
										CHANNELS 3 Xrotation Yrotation Zrotation
										End Site
										{
											OFFSET 0.000000 0.000000 0.100006
										}
									}
								}
							}
						}
					}
				}
				JOINT LeftShoulder
				{
					OFFSET 4.132702 0.575449 10.599205
					CHANNELS 3 Xrotation Yrotation Zrotation
					JOINT LeftArm
					{
						OFFSET 0.000000 -0.000002 13.901794
						CHANNELS 3 Xrotation Yrotation Zrotation
						JOINT LeftArmRoll
						{
							OFFSET 0.000000 -0.000002 7.017883
							CHANNELS 3 Xrotation Yrotation Zrotation
							JOINT LeftForeArm
							{
								OFFSET 0.000000 -0.000003 20.440598
								CHANNELS 3 Xrotation Yrotation Zrotation
								JOINT LeftForeArmRoll
								{
									OFFSET 0.000000 -0.000001 7.875153
									CHANNELS 3 Xrotation Yrotation Zrotation
									JOINT LeftHand
									{
										OFFSET 0.000000 -0.000003 15.803696
										CHANNELS 3 Xrotation Yrotation Zrotation
										End Site
										{
											OFFSET 0.000000 0.000000 0.100006
										}
									}
								}
							}
						}
					}
				}
			}
		}
	}
	JOINT RightUpLeg
	{
		OFFSET -7.060482 1.086100 -1.294701
		CHANNELS 3 Xrotation Yrotation Zrotation
		JOINT RightUpLegRoll
		{
			OFFSET 0.000000 -0.000003 18.530800
			CHANNELS 3 Xrotation Yrotation Zrotation
			JOINT RightLeg
			{
				OFFSET 0.000000 0.000004 -22.947601
				CHANNELS 3 Xrotation Yrotation Zrotation
				JOINT RightLegRoll
				{
					OFFSET 0.000000 -0.000004 23.022598
					CHANNELS 3 Xrotation Yrotation Zrotation
					JOINT RightFoot
					{
						OFFSET 0.000000 -0.000004 19.162506
						CHANNELS 3 Xrotation Yrotation Zrotation
						JOINT RightToeBase
						{
							OFFSET 0.000000 -0.000002 16.018799
							CHANNELS 3 Xrotation Yrotation Zrotation
							End Site
							{
								OFFSET 0.006790 0.894206 7.757812
							}
						}
					}
				}
			}
		}
	}
	JOINT LeftUpLeg
	{
		OFFSET 7.060482 1.086100 -1.294701
		CHANNELS 3 Xrotation Yrotation Zrotation
		JOINT LeftUpLegRoll
		{
			OFFSET 0.000000 -0.000003 18.530899
			CHANNELS 3 Xrotation Yrotation Zrotation
			JOINT LeftLeg
			{
				OFFSET 0.000000 -0.000004 22.947502
				CHANNELS 3 Xrotation Yrotation Zrotation
				JOINT LeftLegRoll
				{
					OFFSET 0.000000 -0.000004 23.235504
					CHANNELS 3 Xrotation Yrotation Zrotation
					JOINT LeftFoot
					{
						OFFSET 0.000000 -0.000003 18.949600
						CHANNELS 3 Xrotation Yrotation Zrotation
						JOINT LeftToeBase
						{
							OFFSET 0.000000 -0.000003 16.018799
							CHANNELS 3 Xrotation Yrotation Zrotation
							End Site
							{
								OFFSET -0.030430 0.894206 7.757812
							}
						}
					}
				}
			}
		}
	}
}
MOTION
Frames: 4
Frame Time: 0.041667
50.201000 -9.478425 96.893089 -2.824133 0.862918 -2.258843 -0.518437 -0.023109 -0.135110 2.964051 -0.045767 -0.270159 4.609123 -0.049000 -0.269593 8.184361 7.812095 4.656648 12.338015 -3.838746 4.898482 -2.503005 -59.029575 -2.978292 124.605422 -59.177558 73.858572 -0.000013 0.000003 -0.000007 84.853346 -5.102101 -2.026054 0.000011 0.000015 -3.003751 -4.999869 -7.999628 0.000029 -20.437796 62.426454 24.123584 116.767849 67.482733 -81.034662 0.000001 -0.000007 0.000010 84.062116 5.643143 2.599116 -0.000013 0.000004 3.000020 -4.999847 7.999506 -0.000039 -1.300127 -178.525381 1.391896 179.999991 -0.000005 -1.085995 173.042952 -0.997605 -0.570723 -0.000001 -0.000002 0.107105 69.606956 6.908624 2.044884 25.456868 -7.350927 0.000001 3.975060 176.165223 -2.442814 -0.000005 -0.000004 -1.159780 -5.388249 3.782133 0.273408 -0.000002 0.000002 -0.070917 69.408574 -6.902835 -2.066093 25.456957 7.355614 0.000000 
50.192596 -9.465006 96.894997 -2.787275 0.881634 -2.242119 -0.515087 -0.025022 -0.139404 2.970881 -0.049002 -0.278746 4.615952 -0.052338 -0.278141 8.030035 7.776313 4.657982 12.242992 -3.817921 4.883762 -2.511142 -59.040333 -2.989022 124.573129 -59.212003 73.688923 -0.000015 0.000001 -0.000003 84.930800 -5.064450 -2.068132 0.000008 0.000015 -3.003750 -4.999870 -7.999626 0.000035 -20.423087 62.412814 24.106651 116.963615 67.472864 -81.025619 -0.000000 -0.000005 0.000012 84.206595 5.588648 2.670511 -0.000014 0.000004 3.000022 -4.999846 7.999506 -0.000037 -1.389582 -178.548426 1.367222 179.999991 -0.000005 -1.085995 172.967287 -0.992481 -0.573436 -0.000001 -0.000001 0.108501 69.611826 6.908635 2.044883 25.456870 -7.350924 0.000002 3.926630 176.124091 -2.468997 -0.000005 -0.000004 -1.159300 -5.388118 3.793254 0.273516 -0.000002 0.000002 -0.070917 69.408054 -6.902844 -2.066128 25.456957 7.355613 -0.000000 
50.185501 -9.445775 96.893898 -2.750570 0.900351 -2.225466 -0.511747 -0.026990 -0.143689 2.977691 -0.052309 -0.287312 4.622763 -0.055749 -0.286670 7.877916 7.741865 4.658680 12.145878 -3.798077 4.868955 -2.518602 -59.050291 -2.998878 124.540522 -59.244849 73.515928 -0.000015 0.000000 -0.000004 85.008309 -5.027831 -2.109496 0.000008 0.000013 -3.003749 -4.999868 -7.999623 0.000029 -20.408832 62.399918 24.090238 117.159328 67.462810 -81.012102 0.000001 -0.000008 0.000013 84.353683 5.534002 2.743011 -0.000014 0.000001 3.000020 -4.999844 7.999512 -0.000038 -1.478447 -178.571485 1.342814 179.999991 -0.000005 -1.085995 172.892360 -0.987359 -0.576110 -0.000001 -0.000001 0.109905 69.617106 6.908594 2.044944 25.456865 -7.350924 0.000003 3.878001 176.081963 -2.495654 -0.000005 -0.000004 -1.158840 -5.388561 3.804701 0.273674 -0.000002 0.000002 -0.070917 69.407617 -6.902825 -2.066052 25.456957 7.355613 -0.000001 
50.175098 -9.426257 96.896202 -2.713971 0.919074 -2.208865 -0.508417 -0.028997 -0.147967 2.984492 -0.055668 -0.295864 4.629562 -0.059211 -0.295184 7.727338 7.708379 4.658900 12.047382 -3.778903 4.854110 -2.525575 -59.059662 -3.008104 124.509649 -59.275926 73.342749 -0.000015 0.000002 -0.000005 85.085804 -4.992018 -2.150350 0.000010 0.000015 -3.003752 -4.999871 -7.999624 0.000033 -20.394916 62.387604 24.074223 117.357294 67.452189 -80.998121 0.000001 -0.000006 0.000017 84.502554 5.479450 2.816575 -0.000012 0.000001 3.000024 -4.999847 7.999506 -0.000038 -1.566900 -178.595513 1.318655 179.999991 -0.000005 -1.085996 172.817979 -0.982238 -0.578761 -0.000001 -0.000001 0.111313 69.622509 6.908590 2.045009 25.456866 -7.350924 0.000000 3.829229 176.039834 -2.522579 -0.000005 -0.000004 -1.158400 -5.389395 3.816385 0.273868 -0.000002 0.000002 -0.070917 69.407091 -6.902838 -2.066086 25.456959 7.355613 -0.000001 
